<?xml version="1.0" standalone="no"?>
<!DOCTYPE svg PUBLIC "-//W3C//DTD SVG 20010904//EN"
 "http://www.w3.org/TR/2001/REC-SVG-20010904/DTD/svg10.dtd">
<svg version="1.0" xmlns="http://www.w3.org/2000/svg"
 width="580.000000pt" height="580.000000pt" viewBox="0 0 580.000000 580.000000"
 preserveAspectRatio="xMidYMid meet">
<metadata>
Created by potrace 1.14, written by Peter Selinger 2001-2017
</metadata>
<g transform="translate(0.000000,580.000000) scale(0.100000,-0.100000)"
fill="#000000" stroke="none">
<path d="M2798 5751 c-86 -44 -118 -113 -119 -251 0 -8 0 -91 0 -184 0 -94 -1
-171 -2 -172 -1 -2 -281 -5 -622 -7 -341 -2 -636 -7 -655 -11 -210 -43 -319
-80 -471 -158 -179 -92 -339 -220 -469 -378 -56 -68 -140 -194 -140 -209 0 -5
-4 -11 -8 -13 -12 -4 -69 -128 -103 -221 -65 -180 -92 -353 -88 -572 1 -44 1
-86 0 -92 -2 -28 -3 -187 0 -243 0 -19 1 -42 0 -50 0 -8 0 -51 0 -95 1 -44 1
-86 0 -92 -2 -28 -3 -187 0 -243 0 -19 1 -42 0 -50 0 -8 0 -51 0 -95 1 -44 1
-86 0 -92 -2 -28 -3 -187 0 -243 0 -19 1 -42 0 -50 -16 -237 55 -552 172 -770
36 -66 107 -176 133 -207 11 -12 30 -36 43 -53 69 -89 199 -206 316 -284 75
-50 210 -124 228 -125 4 0 21 -8 38 -16 32 -17 158 -60 206 -71 197 -43 174
-42 857 -43 415 -1 577 -4 569 -12 -6 -6 -8 -23 -3 -42 3 -18 3 -44 -1 -59 -4
-16 -3 -30 1 -33 5 -3 6 -16 1 -28 -4 -12 -5 -33 -1 -47 4 -14 3 -37 -1 -52
-5 -17 -4 -28 2 -28 6 0 7 -5 4 -11 -15 -24 -3 -172 16 -195 5 -6 7 -13 4 -16
-10 -10 69 -81 112 -100 76 -33 177 -13 238 47 54 55 67 107 65 268 0 31 -1
71 -1 87 0 17 1 53 1 80 0 28 0 58 0 68 0 9 0 31 0 47 l0 30 597 0 c625 0 652
1 799 34 93 21 99 22 149 42 17 7 35 13 40 15 6 1 24 7 40 14 17 6 31 10 31 8
1 -2 11 6 23 16 12 11 21 16 21 13 0 -4 21 5 48 20 26 15 64 36 84 47 90 48
281 209 368 311 65 76 169 233 202 305 56 122 70 159 89 223 26 91 38 138 45
183 3 20 8 46 10 58 5 22 16 202 15 249 0 15 -1 56 -2 91 -1 35 2 69 5 75 4 6
3 11 -1 11 -5 0 -6 29 -3 65 3 36 2 65 -3 65 -4 0 -4 7 1 17 6 9 6 29 2 45 -5
15 -5 30 0 33 5 3 5 19 0 35 -5 18 -5 32 1 36 5 3 7 10 3 15 -3 6 -5 34 -5 62
2 75 2 109 0 181 -1 35 2 69 5 75 4 6 3 11 -1 11 -5 0 -6 29 -3 65 3 36 2 65
-3 65 -4 0 -4 7 1 17 6 9 6 29 2 45 -5 15 -5 30 0 33 5 3 5 19 0 35 -5 18 -5
32 1 36 5 3 7 10 3 15 -3 6 -5 36 -5 67 1 31 1 75 1 97 -1 22 -1 51 -2 65 0
14 0 43 1 65 3 64 -6 184 -19 255 -7 36 -14 72 -15 80 -12 86 -122 378 -147
388 -4 2 -8 10 -8 17 0 11 -93 160 -109 175 -4 3 -24 28 -46 55 -42 53 -205
215 -215 215 -4 0 -18 10 -31 21 -143 128 -477 267 -704 295 -85 11 -138 12
-693 13 l-574 1 2 43 c1 23 1 47 0 52 -1 6 -2 13 -1 17 0 4 1 52 0 105 0 54 1
107 1 118 1 11 1 25 2 30 2 54 -16 135 -37 171 -56 96 -184 129 -287 75z"/>
</g>
</svg>
